<svg width="26" height="26" viewBox="0 0 26 26" fill="none" xmlns="http://www.w3.org/2000/svg">
<path fill-rule="evenodd" clip-rule="evenodd" d="M12.991 4.33334C8.20701 4.33334 4.33301 8.21601 4.33301 13C4.33301 17.784 8.20701 21.6667 12.991 21.6667C17.7837 21.6667 21.6663 17.784 21.6663 13C21.6663 8.21601 17.7837 4.33334 12.991 4.33334ZM12.9997 19.9333C9.16901 19.9333 6.06634 16.8307 6.06634 13C6.06634 9.16934 9.16901 6.06668 12.9997 6.06668C16.8303 6.06668 19.933 9.16934 19.933 13C19.933 16.8307 16.8303 19.9333 12.9997 19.9333ZM12.809 8.66668H12.757C12.4103 8.66668 12.133 8.94401 12.133 9.29068V13.3813C12.133 13.6847 12.289 13.9707 12.5577 14.1267L16.1543 16.2847C16.449 16.458 16.8303 16.3713 17.0037 16.0767C17.1857 15.782 17.0903 15.392 16.787 15.2187L13.433 13.2253V9.29068C13.433 8.94401 13.1557 8.66668 12.809 8.66668V8.66668Z" fill="#C3CAD9"/>
</svg>
